PathFileType	4	(X/Y/Z)	C:\Users\Caesar\Desktop\±œ“µ…Ëº∆\Lee-Son's Toolbox\Example Data\Static.trc	Maker trajectories (.TRC) by Lee-Son ToolBox
DataRate	CameraRate	NumFrames	NumMarkers	Units	OrigDataRate	OrigDataStarFrame	OrigNumFrames
100	100	4	42	mm	100	1	264
Frame#	Time	CLAV			C7			RACR			LACR			RASH			RPSH			RUA3			RLEL			RMEL			RFAsuperior			RFAradius			RFAulna			LASH			LPSH			LUA1			LLEL			LMEL			LFAsuperior			LFAradius			LFAulna			LASI			RASI			LPSI			RPSI			RTH3			RLFC			RMFC			RTB3			RLMAL			RMMAL			RCAL			RMT5			RTOE			LTH1			LLFC			LMFC			LTB1			LLMAL			LMMAL			LCAL			LMT5			LTOE		
		X1	Y1	Z1	X2	Y2	Z2	X3	Y3	Z3	X4	Y4	Z4	X5	Y5	Z5	X6	Y6	Z6	X7	Y7	Z7	X8	Y8	Z8	X9	Y9	Z9	X10	Y10	Z10	X11	Y11	Z11	X12	Y12	Z12	X13	Y13	Z13	X14	Y14	Z14	X15	Y15	Z15	X16	Y16	Z16	X17	Y17	Z17	X18	Y18	Z18	X19	Y19	Z19	X20	Y20	Z20	X21	Y21	Z21	X22	Y22	Z22	X23	Y23	Z23	X24	Y24	Z24	X25	Y25	Z25	X26	Y26	Z26	X27	Y27	Z27	X28	Y28	Z28	X29	Y29	Z29	X30	Y30	Z30	X31	Y31	Z31	X32	Y32	Z32	X33	Y33	Z33	X34	Y34	Z34	X35	Y35	Z35	X36	Y36	Z36	X37	Y37	Z37	X38	Y38	Z38	X39	Y39	Z39	X40	Y40	Z40	X41	Y41	Z41	X42	Y42	Z42

133	1.32	588.545	1419.33	196.371	568.548	1468.55	336.874	734.375	1423.23	279.096	412.865	1450.33	286.748	735.115	1380.31	220.607	718.813	1366.93	357.829	817.842	1280.62	313.942	876.668	1135.43	322.64	827.134	1108.71	276.448	905.748	1080.09	331.818	1065.89	973.307	282.522	1011.06	929.217	316.96	414.761	1412.42	225.855	402.327	1389.63	356.351	330.147	1379.64	313.525	239.955	1157.46	334.725	299.321	1144.17	285.383	204.792	1108.85	342.68	80.4907	986.606	289.271	132.27	945.954	327.982	422.93	965.135	190.806	696.476	961.756	195.185	520.99	990.871	362.055	613.681	984.842	365.798	762.727	769.959	238.398	764.03	506.732	278.792	662.853	491.373	289.692	807.418	394.406	333.556	784.142	93.2219	349.944	696.93	102.829	311.084	734.416	44.6836	411.469	825.207	27.236	236.483	757.822	38.429	154.828	358.411	678.834	261.4	372.329	515.779	276.01	472.515	492.553	274.601	342.458	231.872	349.698	352.773	103.464	348.875	436.951	113.672	311.96	407.573	41.2715	408.948	305.962	30.2104	241.122	364.817	39.8191	154.54
134	1.33	588.562	1419.33	196.246	568.576	1468.55	336.753	734.396	1423.23	278.963	412.887	1450.33	286.635	735.132	1380.3	220.476	718.839	1366.93	357.698	817.865	1280.62	313.811	876.694	1135.43	322.516	827.159	1108.7	276.33	905.778	1080.09	331.697	1065.92	973.312	282.395	1011.09	929.221	316.838	414.778	1412.42	225.743	402.351	1389.63	356.242	330.17	1379.64	313.418	239.978	1157.47	334.646	299.343	1144.17	285.304	204.815	1108.85	342.608	80.5132	986.605	289.213	132.292	945.958	327.931	422.945	965.122	190.731	696.49	961.741	195.116	521.001	990.891	361.977	613.692	984.863	365.723	762.739	769.952	238.359	764.039	506.73	278.778	662.863	491.371	289.685	807.426	394.406	333.546	784.14	93.2238	349.943	696.928	102.83	311.082	734.415	44.6845	411.469	825.207	27.236	236.482	757.822	38.4269	154.828	358.42	678.832	261.365	372.337	515.78	275.992	472.524	492.55	274.583	342.46	231.878	349.688	352.776	103.469	348.872	436.953	113.674	311.957	407.574	41.2738	408.947	305.963	30.2103	241.123	364.818	39.8164	154.539
135	1.34	588.578	1419.33	196.122	568.602	1468.55	336.632	734.416	1423.22	278.831	412.908	1450.33	286.521	735.148	1380.3	220.344	718.864	1366.93	357.569	817.887	1280.62	313.681	876.72	1135.43	322.393	827.184	1108.7	276.211	905.807	1080.1	331.576	1065.95	973.316	282.269	1011.13	929.225	316.717	414.795	1412.42	225.63	402.375	1389.64	356.134	330.194	1379.64	313.312	240.001	1157.47	334.567	299.364	1144.17	285.225	204.837	1108.86	342.536	80.5353	986.605	289.156	132.313	945.963	327.881	422.96	965.109	190.656	696.504	961.726	195.046	521.012	990.91	361.899	613.702	984.884	365.649	762.75	769.946	238.321	764.048	506.727	278.764	662.872	491.369	289.677	807.434	394.407	333.536	784.138	93.2257	349.941	696.927	102.832	311.08	734.413	44.6854	411.468	825.206	27.2361	236.482	757.822	38.4247	154.827	358.428	678.83	261.329	372.346	515.78	275.973	472.532	492.547	274.565	342.461	231.884	349.679	352.778	103.475	348.869	436.955	113.676	311.953	407.575	41.2761	408.946	305.963	30.2101	241.123	364.819	39.8137	154.538
136	1.35	588.593	1419.32	195.997	568.629	1468.55	336.512	734.436	1423.22	278.699	412.929	1450.32	286.408	735.165	1380.29	220.214	718.889	1366.93	357.439	817.909	1280.62	313.551	876.746	1135.43	322.27	827.208	1108.7	276.093	905.835	1080.1	331.455	1065.97	973.32	282.143	1011.16	929.228	316.597	414.812	1412.42	225.518	402.399	1389.64	356.026	330.217	1379.64	313.205	240.023	1157.48	334.488	299.385	1144.17	285.146	204.859	1108.87	342.464	80.5569	986.605	289.098	132.334	945.967	327.83	422.975	965.095	190.581	696.517	961.711	194.977	521.023	990.93	361.821	613.712	984.905	365.574	762.761	769.94	238.282	764.057	506.725	278.75	662.881	491.367	289.669	807.441	394.407	333.527	784.135	93.2277	349.94	696.925	102.833	311.078	734.412	44.6862	411.468	825.206	27.2361	236.482	757.821	38.4226	154.826	358.437	678.828	261.293	372.353	515.78	275.955	472.54	492.543	274.547	342.463	231.89	349.669	352.781	103.48	348.866	436.957	113.679	311.95	407.575	41.2784	408.945	305.964	30.21	241.124	364.819	39.811	154.537
